<svg width="100" height="100" viewBox="0 0 100 100" fill="none" xmlns="http://www.w3.org/2000/svg">
<rect width="100" height="100" rx="30" fill="#FCE38A"/>
<path d="M26.5736 72.6837C27.9163 73.7148 29.3299 74.6547 30.8043 75.5008L49.6838 56.6205L68.5616 75.5C70.0377 74.6539 71.4504 73.714 72.7931 72.6829L49.6838 49.5736L26.5736 72.6837Z" fill="#111111"/>
<path d="M19.8441 26.8911L42.9543 50.0013L19.8441 73.1114C20.8592 74.4338 21.9536 75.6946 23.1307 76.8718L50.0004 50.0013L23.1307 23.1316C21.9527 24.3079 20.8592 25.5678 19.8441 26.8911Z" fill="#111111"/>
<path d="M73 27.0366C71.6582 26.0064 70.2437 25.0665 68.7693 24.2212L49.8898 43.0998L31.0095 24.2203C29.5351 25.0665 28.1215 26.0072 26.7797 27.0366L49.8898 50.1476L73 27.0366Z" fill="#111111"/>
<path d="M57.0094 50.0004L80 26.7784C78.9894 25.4496 77.9015 24.1837 76.7297 23L50 50.0004L76.7297 77C77.9007 75.8163 78.9886 74.5503 80 73.2216L57.0094 50.0004Z" fill="#111111"/>
<path d="M82.9738 31.121L64.0927 50.0013L82.9738 68.8824C86.1659 63.3183 88.0009 56.8777 88.0009 50.0013C88.0009 43.1266 86.1659 36.6842 82.9738 31.121Z" fill="#111111"/>
<path d="M64.0927 85.2361L50.0004 71.1405L35.9082 85.2361H35.7688C40.1659 87.0137 44.9666 88 50.0004 88C55.0334 88 59.8349 87.0137 64.2312 85.2361H64.0927Z" fill="#111111"/>
<path d="M35.9082 50.0012L17.0279 31.1218C13.835 36.6842 12 43.1265 12 50.0012C12 56.8776 13.8342 63.3183 17.0279 68.8807L35.9082 50.0012Z" fill="#111111"/>
<path d="M35.9082 14.7681L50.0004 28.8604L64.0927 14.7681H64.2362C59.8383 12.9889 55.0359 12 50.0004 12C44.9641 12 40.1634 12.9889 35.7646 14.7673H35.9082V14.7681Z" fill="#111111"/>
</svg>
