<svg xmlns="http://www.w3.org/2000/svg" width="320.13917622696465" height="78.423863077634" viewBox="0 0 320.13917622696465 78.423863077634" class="css-1j8o68f"><defs id="SvgjsDefs1524"></defs><g id="SvgjsG1525" featurekey="5TMTKC-0" transform="matrix(0.9483515144226209,0,0,0.9483515144226209,-2.573939728105275,-7.955689141961706)" fill="#111111"><g xmlns="http://www.w3.org/2000/svg"><g><g><path d="M27.333,16.518c3.425,12.604,6.053,25.375,7.881,38.307c1.489,10.531,2.32,21.448,9.391,29.95     c0.516,0.62,1.395-0.269,0.884-0.884c-7.273-8.746-7.806-20.463-9.331-31.244c-1.74-12.304-4.362-24.474-7.62-36.462     C28.327,15.409,27.121,15.739,27.333,16.518L27.333,16.518z"></path></g></g><g><g><path d="M54.797,9.166c3.161,12.256,7.808,24.071,12.14,35.946c4.472,12.258,8.943,24.515,13.415,36.773     c0.274,0.751,1.482,0.427,1.205-0.332c-4.472-12.258-8.943-24.515-13.415-36.773c-4.332-11.875-8.979-23.69-12.14-35.946     C55.801,8.054,54.595,8.385,54.797,9.166L54.797,9.166z"></path></g></g><g><g><path d="M3.31,45.748c31.071-3.82,61.819-9.787,92.059-17.885c0.778-0.208,0.447-1.414-0.332-1.205     c-30.13,8.069-60.767,14.034-91.727,17.84C2.52,44.595,2.511,45.847,3.31,45.748L3.31,45.748z"></path></g></g><g><g><path d="M10.984,74.774c28.909-4.11,57.651-9.273,86.182-15.482c0.788-0.171,0.453-1.376-0.332-1.205     C68.302,64.296,39.56,69.459,10.651,73.569C9.856,73.682,10.196,74.886,10.984,74.774L10.984,74.774z"></path></g></g><g><g><path d="M5.345,23.909c3.034,2.06,6.068,4.121,9.101,6.181c2.761,1.875,5.364,3.913,8.725,4.464     c0.788,0.129,1.126-1.075,0.332-1.205c-3.256-0.534-5.766-2.531-8.427-4.338c-3.034-2.06-6.068-4.121-9.101-6.181     C5.307,22.375,4.683,23.459,5.345,23.909L5.345,23.909z"></path></g></g><g><g><path d="M19.643,19.255c-3.948,5.295-7.342,10.911-10.194,16.868c-0.346,0.723,0.731,1.358,1.079,0.631     c2.852-5.957,6.246-11.573,10.194-16.868C21.205,19.239,20.119,18.617,19.643,19.255L19.643,19.255z"></path></g></g><g><g><path d="M29.717,77.282c-4.543-0.784-9.11-0.009-12.719,2.976c-1.421,1.175-3.068,3.453-2.969,5.392     c0.132,2.588,1.732,3.844,4.026,4.815c3.883,1.644,9.134-0.07,10.696-4.159c1.612-4.22-0.637-8.833-5.254-9.553     c-0.788-0.123-1.127,1.081-0.332,1.205c3.61,0.563,5.544,3.751,4.679,7.236c-1.215,4.895-7.149,5.43-10.833,3.372     c-4.939-2.759,0.992-7.817,3.357-9.053c2.719-1.421,6.059-1.535,9.017-1.025C30.173,78.623,30.51,77.418,29.717,77.282     L29.717,77.282z"></path></g></g><g><g><path d="M43.174,49.504c3.131-0.633,5.948-0.015,8.89,1.062c2.356,0.862,6.641,2.383,7.682,4.971     c0.297,0.738,1.506,0.416,1.205-0.332c-1.214-3.019-4.499-4.083-7.281-5.32c-3.496-1.555-7.048-2.35-10.829-1.586     C42.052,48.458,42.387,49.663,43.174,49.504L43.174,49.504z"></path></g></g><g><g><path d="M57.659,44.258c-6.442,1.846-9.381,10.419-10.5,16.289c-0.15,0.788,1.054,1.124,1.205,0.332     c1.027-5.384,3.678-13.711,9.627-15.416C58.764,45.241,58.435,44.035,57.659,44.258L57.659,44.258z"></path></g></g><g><g><path d="M79.23,9.447c-4.477-1.521-9.498,0.046-11.411,4.569c-1.91,4.517,0.962,8.676,5.151,10.213     c5.275,1.936,9.913-0.485,12.046-5.477c1.727-4.043-0.522-8.863-5.043-9.24c-0.804-0.067-0.797,1.184,0,1.25     c5.81,0.484,4.681,7.356,2.04,10.57c-2.586,3.148-7.044,2.596-10.328,1.005c-3.498-1.694-3.783-6.111-2.081-9.126     c1.808-3.202,6.194-3.612,9.294-2.56C79.663,10.913,79.989,9.705,79.23,9.447L79.23,9.447z"></path></g></g></g></g><g id="SvgjsG1526" featurekey="nameLeftFeature-0" transform="matrix(2.4861879239010025,0,0,2.4861879239010025,106.2707181141485,7.92265095123747)" fill="#111111"><path d="M11 6.5 l-5 0 l0 13 l-1 0 l0 -13 l-3.5 0 l0 -1 l9.5 0 l0 1 z M4.5 8 l-3 0 l0 -1 l3 0 l0 1 z M11 8 l-3.16 0 l-0.98 -1 l4.14 0 l0 1 z M7.5 19.5 l-1 0 l0 -12.14 l1 1.04 l0 11.1 z M15 5.5 l1 0 l0 14 l-1 0 l0 -14 z M16.5 5.5 l1 0 l0 14 l-1 0 l0 -14 z M22 10.26 c0 -3 1.8 -5 4.5 -5 s4.5 2 4.5 5 l-1 0 c0 -2.4 -1.4 -4.02 -3.5 -4.02 s-3.5 1.62 -3.5 4.02 l0 4.5 c0 2.4 1.4 4 3.5 4 c0.96 0 1.74 -0.36 2.34 -0.96 l0.76 0.74 c-0.8 0.76 -1.84 1.2 -3.1 1.2 c-2.7 0 -4.5 -1.98 -4.5 -4.98 l0 -4.5 z M26.5 7.74 c-0.5 0 -0.9 0.16 -1.26 0.46 l-0.74 -0.7 c0.56 -0.5 1.2 -0.74 2 -0.74 c1.8 0 3 1.4 3 3.5 l-1 0 c0 -1.5 -0.8 -2.52 -2 -2.52 z M26.5 17.259999999999998 c1.2 0 2 -1 2 -2.5 l1 0 c0 2.1 -1.2 3.48 -3 3.48 s-3 -1.38 -3 -3.48 l0 -4.5 c0 -0.96 0.24 -1.76 0.7 -2.36 l0.7 0.7 c-0.26 0.46 -0.4 1 -0.4 1.66 l0 4.5 c0 1.5 0.8 2.5 2 2.5 z M31 14.76 c0 1.38 -0.4 2.54 -1.06 3.4 l-0.74 -0.7 c0.5 -0.72 0.8 -1.62 0.8 -2.7 l1 0 z M35.5 5.5 l1 0 l0 14 l-1 0 l0 -14 z M37 5.5 l1 0 l0 14 l-1 0 l0 -14 z"></path></g><g id="SvgjsG1527" featurekey="nameRightFeature-0" transform="matrix(2.319587560449554,0,0,2.319587560449554,195.4845368350549,10.005154388315033)" fill="#111111"><path d="M14.5 20 l0 -11.5 l-3.5 0 l0 -3.5 l10.5 0 l0 3.5 l-3.5 0 l0 11.5 l-3.5 0 z M15 19.5 l1 0 l0 -13 l5 0 l0 -1 l-9.5 0 l0 1 l3.5 0 l0 13 z M14.5 7 l-3 0 l0 1 l3 0 l0 -1 z M21 7 l-4.14 0 l0.98 1 l3.16 0 l0 -1 z M17.5 8.4 l-1 -1.04 l0 12.14 l1 0 l0 -11.1 z M27.14 17.759999999999998 l-0.74 2.24 l-3.64 0 l4.98 -15 l2.26 0 l5 15 l-3.66 0 l-0.78 -2.24 l-3.42 0 z M26.1 14.76 l3.04 -9.26 l-1.04 0 l-4.66 14 l1.06 0 l1.26 -3.74 l4.14 0 l-0.36 -1 l-3.44 0 z M29.66 8.7 l3.6 10.8 l1.04 0 l-4.6 -14 l-2.96 8.76 l1.06 0 z M26.44 16.259999999999998 l0.7 1 l3.76 0 l0.74 2.24 l1.1 0 l-3.08 -9.24 l-0.52 1.54 l1.46 4.46 l-4.16 0 z M28.84 12.66 l-0.54 1.6 l1.1 0 z M26.7 17.5 l-0.64 -1 l-1.06 3 l1.06 0 z M43.24 10.26 c0 -1.2 -0.6 -2 -1.5 -2 s-1.5 0.8 -1.5 2 l0 4.5 c0 1.2 0.6 1.98 1.5 1.98 s1.5 -0.78 1.5 -1.98 l0 -0.5 l3.5 0 l0 0.5 c0 3.3 -2 5.5 -5 5.5 s-5 -2.2 -5 -5.5 l0 -4.5 c0 -3.3 2 -5.52 5 -5.52 s5 2.22 5 5.52 l0 0.48 l-3.5 0 l0 -0.48 z M37.24 14.76 c0 3 1.8 4.98 4.5 4.98 c1.26 0 2.3 -0.44 3.1 -1.2 l-0.76 -0.74 c-0.6 0.6 -1.38 0.96 -2.34 0.96 c-2.1 0 -3.5 -1.6 -3.5 -4 l0 -4.5 c0 -2.4 1.4 -4.02 3.5 -4.02 s3.5 1.62 3.5 4.02 l1 0 c0 -3 -1.8 -5 -4.5 -5 s-4.5 2 -4.5 5 l0 4.5 z M41.74 7.74 c1.2 0 2 1.02 2 2.52 l1 0 c0 -2.1 -1.2 -3.5 -3 -3.5 c-0.8 0 -1.44 0.24 -2 0.74 l0.74 0.7 c0.36 -0.3 0.76 -0.46 1.26 -0.46 z M41.74 17.259999999999998 c-1.2 0 -2 -1 -2 -2.5 l0 -4.5 c0 -0.66 0.14 -1.2 0.4 -1.66 l-0.7 -0.7 c-0.46 0.6 -0.7 1.4 -0.7 2.36 l0 4.5 c0 2.1 1.2 3.48 3 3.48 s3 -1.38 3 -3.48 l-1 0 c0 1.5 -0.8 2.5 -2 2.5 z M45.24 14.76 c0 1.08 -0.3 1.98 -0.8 2.7 l0.74 0.7 c0.66 -0.86 1.06 -2.02 1.06 -3.4 l-1 0 z M53.74 5 l0 15 l-3.5 0 l0 -15 l3.5 0 z M50.74 19.5 l1 0 l0 -14 l-1 0 l0 14 z M52.24 19.5 l1 0 l0 -14 l-1 0 l0 14 z"></path></g></svg>

