<svg version="1.1" xmlns="http://www.w3.org/2000/svg" viewBox="243.235 187.766 77.234 77.234" width="77.234" height="77.234">
  <path fill="#000" fill-rule="evenodd" d="M 243.235 226.383 C 243.235 205.054 260.525 187.766 281.852 187.766 C 303.179 187.766 320.469 205.054 320.469 226.383 C 320.469 247.71 303.179 265 281.852 265 C 260.525 265 243.235 247.71 243.235 226.383 Z M 281.852 192.915 C 263.367 192.915 248.384 207.898 248.384 226.383 C 248.384 244.865 263.367 259.851 281.852 259.851 C 300.337 259.851 315.32 244.865 315.32 226.383 C 315.32 207.898 300.337 192.915 281.852 192.915 Z M 281.852 203.213 C 269.054 203.213 258.682 213.585 258.682 226.383 C 258.682 239.178 269.054 249.553 281.852 249.553 C 294.647 249.553 305.022 239.178 305.022 226.383 C 305.022 213.585 294.647 203.213 281.852 203.213 Z M 253.533 226.383 C 253.533 210.743 266.212 198.064 281.852 198.064 C 297.492 198.064 310.171 210.743 310.171 226.383 C 310.171 242.023 297.492 254.702 281.852 254.702 C 266.212 254.702 253.533 242.023 253.533 226.383 Z" clip-rule="evenodd" style=""></path>
</svg>